<svg xmlns="http://www.w3.org/2000/svg" viewBox="0 0 24 24">
  <rect width="24" height="24" rx="5" fill="#0a6b7c"></rect>
  <g fill="none" stroke="#c3ece5" stroke-width="1.4" stroke-linecap="round" stroke-linejoin="round">
    <path d="M7 3.5c-2 0-3.5 1.6-3.5 3.6 0 1.5.5 2.6 1 3.9.5 1.4.5 2.8.5 4.2 0 2.8 1 5.8 2.6 5.8 1.3 0 1.4-1.9 2-3.7.5-1.3 1-1.9 1.9-1.9s1.4.6 1.9 1.9c.7 1.8.8 3.7 2 3.7 1.7 0 2.7-3 2.7-5.8 0-1.4 0-2.8.5-4.2.4-1.3 1-2.4 1-3.9 0-2-1.5-3.6-3.5-3.6-1.3 0-2.4.6-3.2 1.1-.6.3-1 .5-1.5.5s-.9-.2-1.5-.5c-.8-.5-1.9-1.1-3.2-1.1Z" transform="scale(.85) translate(2 2)"></path>
  </g>
</svg>